<svg xmlns="http://www.w3.org/2000/svg" viewBox="0 0 64 64" fill="none">
  <defs>
    <linearGradient id="bg" x1="8" y1="6" x2="56" y2="58" gradientUnits="userSpaceOnUse">
      <stop stop-color="#0f172a" />
      <stop offset="0.58" stop-color="#1d4ed8" />
      <stop offset="1" stop-color="#38bdf8" />
    </linearGradient>
    <linearGradient id="plane" x1="22" y1="14" x2="42" y2="41" gradientUnits="userSpaceOnUse">
      <stop stop-color="#ffffff" />
      <stop offset="0.58" stop-color="#e2e8f0" />
      <stop offset="1" stop-color="#94a3b8" />
    </linearGradient>
    <linearGradient id="trail" x1="10" y1="39" x2="35" y2="25" gradientUnits="userSpaceOnUse">
      <stop stop-color="#93c5fd" stop-opacity="0.94" />
      <stop offset="1" stop-color="#e2e8f0" stop-opacity="0.48" />
    </linearGradient>
    <filter id="shadow" x="0" y="0" width="64" height="64" filterUnits="userSpaceOnUse">
      <feDropShadow dx="0" dy="2" stdDeviation="2.5" flood-color="#020617" flood-opacity="0.34" />
    </filter>
  </defs>
  <rect width="64" height="64" rx="14" fill="url(#bg)" />
  <path d="M9 40c7-8 14-8 22-3" stroke="url(#trail)" stroke-width="1.8" stroke-linecap="round" stroke-dasharray="3.4 5.2" />
  <path d="M31 37c8 4 15 2 22-7" stroke="url(#trail)" stroke-width="1.8" stroke-linecap="round" stroke-dasharray="3.4 5.2" />
  <g filter="url(#shadow)" transform="translate(14 8) rotate(-8 18 18)">
    <path
      d="M18 2 23 14 37 16 40 19 37 22 23 24 18 42 14 42 15 24 5 31 2 31 7 20 2 10 5 10 15 16 14 2Z"
      fill="url(#plane)"
    />
    <path
      d="M18 2 21 14 34 16 36 19 34 22 21 24 18 42 16 42 16.5 24 9 29 7.5 27 12 20 7.5 13 9 11 16.5 16 16 2Z"
      fill="#f8fafc"
      opacity="0.64"
    />
    <path d="M18 7 20 19 18 36" stroke="#1e293b" stroke-opacity="0.16" stroke-width="1.1" stroke-linecap="round" />
  </g>
</svg>
