<svg xmlns="http://www.w3.org/2000/svg" viewBox="0 0 64 64" fill="none" role="img" aria-label="Marquisa">
  <rect width="64" height="64" rx="14" fill="#0a0f18"/>
  <circle cx="32" cy="32" r="22" fill="none" stroke="#94a3b8" stroke-width="1.35" opacity="0.85"/>
  <path d="M32 8.5V55.5M8.5 32H55.5" stroke="#f8fafc" stroke-width="1.2" stroke-linecap="round" opacity="0.92"/>
  <path d="M16.2 16.2l4.2 4.2M43.6 16.2l-4.2 4.2M16.2 47.8l4.2-4.2M43.6 47.8l-4.2-4.2" stroke="#7dd3fc" stroke-width="1.15" stroke-linecap="round" opacity="0.9"/>
  <path fill="#f8fafc" d="M32 11.2 35.1 28.2 32 26.4 28.9 28.2Z"/>
  <path fill="#f8fafc" d="M52.8 32 35.8 35.1 37.6 32 35.8 28.9Z"/>
  <path fill="#f8fafc" d="M32 52.8 28.9 35.8 32 37.6 35.1 35.8Z"/>
  <path fill="#f8fafc" d="M11.2 32 28.2 28.9 26.4 32 28.2 35.1Z"/>
  <path fill="#94a3b8" d="M44.8 19.2 36.6 30.2 35.2 28.8 33.8 30.2Z" opacity="0.95"/>
  <path fill="#94a3b8" d="M44.8 44.8 33.8 33.8 35.2 35.2 36.6 33.8Z" opacity="0.95"/>
  <path fill="#94a3b8" d="M19.2 44.8 30.2 33.8 28.8 35.2 30.2 36.6Z" opacity="0.95"/>
  <path fill="#94a3b8" d="M19.2 19.2 30.2 30.2 28.8 28.8 30.2 27.4Z" opacity="0.95"/>
  <circle cx="32" cy="32" r="4.2" fill="#0a0f18" stroke="#f8fafc" stroke-width="1.35"/>
  <circle cx="32" cy="32" r="1.55" fill="#38bdf8"/>
</svg>
