<svg xmlns="http://www.w3.org/2000/svg" viewBox="0 0 640 180" role="img" aria-label="Marquisa">
  <defs>
    <linearGradient id="bg" x1="0" y1="0" x2="1" y2="1">
      <stop offset="0%" stop-color="#0b1a2e"/>
      <stop offset="100%" stop-color="#12243d"/>
    </linearGradient>
    <pattern id="g" width="28" height="28" patternUnits="userSpaceOnUse">
      <path d="M28 0H0V28" fill="none" stroke="rgba(148,197,255,0.1)" stroke-width="1"/>
    </pattern>
  </defs>
  <rect width="640" height="180" fill="url(#bg)"/>
  <rect width="640" height="180" fill="url(#g)"/>
  <path d="M30 140C110 90 180 150 260 110C340 70 410 130 500 95C560 72 600 55 630 70" fill="none" stroke="rgba(125,211,252,0.35)" stroke-width="1.4"/>
  <path d="M40 40 L180 110 L360 70 L560 130" fill="none" stroke="rgba(248,250,252,0.5)" stroke-width="2" stroke-dasharray="7 6"/>
  <g transform="translate(470 70)">
    <circle r="34" fill="rgba(11,18,32,0.45)" stroke="rgba(148,163,184,0.55)" stroke-width="1.3"/>
    <path d="M0 -34V34M-34 0H34" stroke="rgba(248,250,252,0.55)" stroke-width="1"/>
    <path d="M0 -28L3 -6 0 -9 -3 -6Z" fill="#f8fafc"/>
    <circle r="4" fill="#0b1220" stroke="#f8fafc" stroke-width="1.2"/>
    <circle r="1.6" fill="#5eead4"/>
  </g>
  <g fill="#7dd3fc">
    <circle cx="180" cy="110" r="3.5"/>
    <circle cx="360" cy="70" r="3.5"/>
    <circle cx="560" cy="130" r="3.5"/>
  </g>
  <text x="28" y="42" fill="#93c5fd" font-family="Arial,sans-serif" font-size="11" letter-spacing="0.2em" font-weight="700">MARQUISA</text>
  <text x="28" y="72" fill="#f8fafc" font-family="Arial,sans-serif" font-size="26" font-weight="700">Briefing &amp; navegação</text>
  <text x="28" y="98" fill="rgba(226,232,240,0.72)" font-family="Arial,sans-serif" font-size="13">METAR · planejamento · computador de voo</text>
</svg>
