<svg xmlns="http://www.w3.org/2000/svg" viewBox="0 0 256 256" fill="none">
  <defs>
    <linearGradient id="bg" x1="36" y1="24" x2="220" y2="232" gradientUnits="userSpaceOnUse">
      <stop stop-color="#0f172a" />
      <stop offset="0.58" stop-color="#1d4ed8" />
      <stop offset="1" stop-color="#38bdf8" />
    </linearGradient>
    <linearGradient id="plane" x1="86" y1="58" x2="158" y2="156" gradientUnits="userSpaceOnUse">
      <stop stop-color="#ffffff" />
      <stop offset="0.58" stop-color="#e2e8f0" />
      <stop offset="1" stop-color="#94a3b8" />
    </linearGradient>
    <linearGradient id="trail" x1="46" y1="156" x2="126" y2="112" gradientUnits="userSpaceOnUse">
      <stop stop-color="#93c5fd" stop-opacity="0.92" />
      <stop offset="1" stop-color="#e2e8f0" stop-opacity="0.42" />
    </linearGradient>
    <filter id="shadow" x="0" y="0" width="256" height="256" filterUnits="userSpaceOnUse">
      <feDropShadow dx="0" dy="10" stdDeviation="12" flood-color="#020617" flood-opacity="0.32" />
    </filter>
  </defs>

  <circle cx="128" cy="128" r="120" fill="url(#bg)" />
  <circle cx="128" cy="128" r="118" stroke="rgba(255,255,255,0.14)" stroke-opacity="0.14" stroke-width="2" />

  <path
    d="M48 160 C74 128, 102 126, 132 146"
    fill="none"
    stroke="url(#trail)"
    stroke-width="6"
    stroke-linecap="round"
    stroke-dasharray="10 12"
  />
  <path
    d="M132 146 C162 160, 194 150, 220 110"
    fill="none"
    stroke="url(#trail)"
    stroke-width="6"
    stroke-linecap="round"
    stroke-dasharray="10 12"
  />

  <g filter="url(#shadow)" transform="translate(74 36) rotate(-8 54 54)">
    <path
      d="M54 8 68 46 108 50 116 58 108 66 68 70 54 126 44 126 46 70 20 86 12 86 24 60 12 34 20 34 46 50 44 8Z"
      fill="url(#plane)"
    />
    <path
      d="M54 8 63 46 96 50 102 58 96 66 63 70 54 126 48 126 49 70 30 82 26 76 38 60 26 44 30 38 49 50 48 8Z"
      fill="#f8fafc"
      opacity="0.64"
    />
    <path d="M54 22 60 58 54 108" stroke="#1e293b" stroke-opacity="0.16" stroke-width="3" stroke-linecap="round" />
  </g>
</svg>
